<svg version="1.1" id="Layer_1" xmlns="http://www.w3.org/2000/svg" xmlns:xlink="http://www.w3.org/1999/xlink" x="0px" y="0px"
	 width="100%" viewBox="0 0 512 512" enable-background="new 0 0 512 512" xml:space="preserve">
<path fill="#000000" opacity="1.000000" stroke="none" 
	d="
M190.512451,191.648163 
	C180.279129,187.965103 172.904907,182.160126 171.409698,170.962555 
	C170.791595,166.333603 172.376129,162.108185 173.668167,157.812393 
	C176.137802,149.601349 175.221191,147.841507 167.288895,145.316254 
	C152.966812,140.756821 149.312912,132.779160 155.606308,118.971672 
	C158.155777,113.378212 161.146545,107.946068 164.374527,102.710571 
	C169.851913,93.826691 174.173111,84.581635 175.621979,74.125450 
	C176.007675,71.341820 176.767883,68.574081 177.666641,65.903534 
	C182.567764,51.340336 195.943130,44.980392 210.381760,50.404217 
	C219.715317,53.910336 227.468491,60.121197 235.182358,66.131485 
	C239.811813,69.738548 240.903305,75.750153 241.287766,81.513924 
	C241.686386,87.489891 241.857651,93.480843 242.152130,99.464073 
	C242.214935,100.739868 241.973892,102.140800 243.668320,103.495781 
	C248.427261,97.321999 248.344849,90.492996 247.068756,83.621101 
	C246.239792,79.157005 243.648743,75.379440 241.065918,71.650078 
	C235.670013,63.858879 229.824020,56.311333 227.331161,46.881500 
	C224.317123,35.480217 229.613922,25.261457 240.071472,22.288498 
	C244.349533,21.072296 248.543152,21.679550 252.237183,23.547966 
	C269.346680,32.201828 287.667023,33.223572 306.288544,32.777107 
	C309.768555,32.693672 313.227417,32.605587 316.712585,33.465065 
	C323.121704,35.045612 327.839081,38.608376 330.782196,44.452915 
	C331.648987,46.174175 332.504852,47.297981 334.606232,47.847301 
	C348.205475,51.402206 351.909668,55.912903 353.216187,70.420868 
	C353.925262,78.294495 355.542725,85.634720 359.984924,92.541046 
	C363.552490,98.087669 360.124390,103.922043 357.423889,108.987717 
	C353.334534,116.658638 346.135162,121.052055 338.650238,124.895966 
	C334.858978,126.842972 330.970734,128.601105 326.704010,130.647171 
	C337.743713,135.131500 338.504120,135.989319 338.227356,147.447647 
	C338.079010,153.587387 339.723389,159.615128 338.482330,165.854507 
	C337.270844,171.945312 334.358582,176.371643 328.792297,178.867523 
	C320.183777,182.727554 311.205017,184.964844 301.656219,184.331909 
	C295.737518,183.939606 291.660675,181.235825 289.625000,175.505051 
	C287.484497,169.479065 287.404114,163.084824 286.102295,156.908966 
	C285.518951,154.141586 287.637299,152.554001 290.042572,151.952789 
	C292.608307,151.311447 295.281769,150.922043 297.925385,150.802155 
	C310.283752,150.241882 312.128082,148.805328 315.440643,136.426285 
	C310.644135,135.643631 306.229492,137.367722 301.903748,138.605621 
	C293.029999,141.145004 284.135284,143.056488 274.857819,142.291351 
	C271.149139,141.985489 269.172211,143.309418 269.095520,147.227570 
	C269.053406,149.381760 268.373871,151.536758 268.438507,153.677597 
	C268.823212,166.426697 262.123108,174.192032 250.997910,178.976913 
	C248.094803,180.225525 245.154572,181.442657 242.409943,182.990799 
	C239.081406,184.868286 237.058640,187.612000 238.628296,191.683975 
	C240.046051,195.361877 244.591278,197.575058 248.544769,196.387909 
	C250.760727,195.722504 252.860840,194.638992 254.966827,193.645630 
	C262.064606,190.297623 269.290314,187.401230 277.096313,186.059067 
	C288.060059,184.173965 293.188751,188.062576 294.264252,199.032196 
	C295.849487,215.201019 294.663208,230.887482 287.458282,245.800385 
	C282.751099,255.543396 280.919495,265.827484 281.138824,276.770874 
	C281.343201,286.970428 278.778229,297.139404 274.716827,306.353485 
	C267.216949,323.368469 268.753418,339.932220 273.949036,356.971771 
	C276.447144,365.164642 279.493927,373.479889 277.452789,382.381989 
	C277.118652,383.839142 276.897034,385.358154 276.315735,386.716949 
	C271.406891,398.191559 272.281586,409.949554 273.470306,422.039001 
	C275.803955,445.771698 270.862610,468.043152 257.366882,488.066406 
	C256.811310,488.890656 256.141632,489.647491 255.460999,490.375793 
	C254.269257,491.651062 252.923233,492.824677 251.179138,491.387787 
	C249.507858,490.010895 250.141708,488.436981 251.175674,486.956329 
	C254.419434,482.311371 257.577942,477.643585 259.798553,472.364502 
	C267.733246,453.501373 270.422760,434.072174 267.068146,413.771881 
	C265.810913,406.163666 266.083374,398.362213 269.087402,391.131805 
	C272.917755,381.912537 272.843414,372.881378 269.997559,363.431580 
	C267.315338,354.525146 264.957245,345.460388 263.838501,336.206299 
	C262.870453,328.198730 263.957458,320.360748 266.766296,312.651978 
	C272.252106,297.596527 276.518768,282.337250 275.895416,265.936249 
	C275.576385,257.541016 279.813934,249.854889 282.846954,242.116257 
	C285.707062,234.818665 288.568451,227.519577 289.183472,219.622330 
	C289.792084,211.807419 288.748962,204.035355 288.092163,196.267700 
	C287.787842,192.668625 285.456757,191.206680 281.876617,191.273697 
	C275.936371,191.384872 270.394257,193.093216 264.966309,195.248230 
	C262.029510,196.414230 259.192688,197.837265 256.332794,199.190872 
	C244.233841,204.917404 238.322723,203.016586 231.585815,190.754272 
	C224.337204,201.248032 214.431473,199.077194 204.573669,196.435669 
	C199.923935,195.189713 195.428345,193.368423 190.512451,191.648163 
M234.259399,110.839577 
	C235.288849,109.424164 237.669525,108.759789 237.233704,106.550804 
	C235.993866,100.266830 237.207153,93.889885 236.412415,87.631706 
	C235.629303,81.465195 236.313004,74.511185 230.863831,70.033501 
	C224.312851,64.650406 217.425537,59.575142 209.632294,56.078957 
	C197.993484,50.857586 187.052704,55.749081 182.935349,67.798386 
	C182.239502,69.834747 181.629669,71.944481 181.342804,74.069290 
	C179.774460,85.685509 175.223373,96.090820 168.970825,105.897171 
	C165.662552,111.085785 162.581802,116.441467 160.295364,122.185730 
	C156.223282,132.416077 158.092712,136.413742 168.433182,139.826462 
	C180.482559,143.803177 182.477692,147.631989 178.910461,159.935867 
	C178.678818,160.734818 178.439575,161.531555 178.204254,162.329437 
	C175.178207,172.589111 178.621796,180.528870 188.396042,184.787216 
	C193.872437,187.173141 199.548950,189.168930 205.262100,190.928833 
	C220.265198,195.550415 223.615143,194.186646 230.708923,180.295547 
	C235.297211,171.310684 240.470871,162.924530 248.700226,156.712509 
	C251.462265,154.627533 253.985458,152.084686 255.709045,148.981216 
	C258.032288,144.798111 256.440277,142.010803 251.700943,142.289368 
	C248.571945,142.473282 245.471359,143.264023 242.376816,143.877625 
	C238.982605,144.550644 235.813980,144.363220 232.819656,142.341812 
	C226.417877,138.020081 225.745239,138.081329 220.462921,143.884064 
	C217.576538,147.054794 214.729401,146.835449 211.796341,144.209076 
	C207.188293,140.082840 208.188004,133.560318 213.907745,129.922333 
	C218.673737,126.890953 224.299530,126.733772 229.849823,125.379036 
	C229.065216,120.041443 230.321167,115.379211 234.259399,110.839577 
M246.092987,27.456326 
	C235.856339,27.320627 230.152466,34.800858 232.689407,45.192539 
	C234.261032,51.630157 237.759705,57.148472 241.687592,62.339935 
	C250.872818,74.479965 257.294586,87.216454 250.730042,103.602760 
	C254.766571,101.519402 258.016968,101.088203 261.311279,102.278183 
	C264.991241,103.607452 266.010315,106.959076 266.674896,110.739792 
	C270.686615,106.959686 274.641846,106.688675 278.335266,109.785995 
	C281.171234,112.164261 282.780426,110.940941 284.345856,108.605331 
	C285.268677,107.228523 286.087921,105.763306 286.792267,104.262093 
	C292.471130,92.157928 294.185883,79.079514 295.579773,66.032234 
	C297.087494,51.919079 303.363800,45.735786 317.418884,45.647640 
	C319.590271,45.634022 321.957825,46.386620 324.412811,44.778275 
	C320.643860,40.235191 316.139832,38.310070 310.681519,38.316284 
	C298.204559,38.330482 285.747955,38.655338 273.338867,36.432747 
	C264.030060,34.765450 255.708801,30.509691 246.092987,27.456326 
M352.420258,90.891006 
	C351.527313,88.567413 350.290680,86.312683 349.808624,83.906769 
	C348.569641,77.722977 347.743103,71.457886 346.606598,65.251862 
	C345.286041,58.040432 342.248840,55.181168 336.001160,53.583042 
	C331.427917,52.413239 330.168701,56.741692 327.119751,58.003998 
	C313.799377,63.518879 309.028015,73.939552 309.207916,87.841576 
	C309.402557,102.882545 303.457397,114.362328 288.142426,119.296143 
	C287.705841,119.436790 287.343994,119.809425 286.977020,120.054092 
	C288.964447,128.581680 287.560883,130.270615 278.527618,130.313477 
	C275.694641,130.326920 272.834076,130.552856 270.034027,130.245438 
	C264.020386,129.585220 258.987854,130.927048 255.571838,136.305176 
	C262.830414,139.717575 264.588806,145.873474 260.150604,152.611816 
	C257.371704,156.830872 253.724106,160.246246 249.778610,163.355438 
	C244.930496,167.175934 241.225143,171.823578 238.841248,178.027954 
	C243.292648,176.094376 247.310455,174.477158 251.216797,172.624832 
	C258.643707,169.103073 262.726166,163.380280 262.798737,154.925201 
	C262.830017,151.279480 263.162170,147.599915 263.768860,144.005127 
	C264.470093,139.850052 266.879211,136.389328 271.372314,136.853500 
	C287.432495,138.512634 302.082916,131.495605 317.577942,129.842712 
	C318.367462,129.758514 319.337097,129.516754 319.851654,128.987473 
	C324.800934,123.896561 331.787018,122.492622 337.644867,119.057678 
	C343.129547,115.841553 348.879333,112.835594 352.038239,107.049408 
	C354.705811,102.163239 357.974487,96.966087 352.420258,90.891006 
M292.925415,163.888962 
	C293.250061,166.020432 293.402405,168.195618 293.930176,170.275543 
	C295.841949,177.810104 297.256866,178.732285 304.995300,178.878174 
	C312.164398,179.013290 318.810791,177.024780 325.327301,174.396194 
	C329.858765,172.568344 332.936310,169.329926 332.988647,164.276169 
	C333.067688,156.640930 332.777100,149.000259 332.547150,141.364807 
	C332.504883,139.961899 331.435852,139.013535 330.268341,138.255371 
	C325.260925,135.003647 321.818939,135.831238 320.060425,141.594299 
	C316.769470,152.379440 309.478516,156.759781 298.668793,156.328110 
	C298.502594,156.321457 298.335419,156.329071 298.169098,156.337723 
	C292.585510,156.627884 292.116455,157.206329 292.925415,163.888962 
M298.797333,83.012726 
	C296.931335,93.112137 294.341309,102.984718 288.827942,112.710785 
	C295.643982,110.028961 299.795135,106.026070 301.680054,99.882774 
	C303.001312,95.576599 303.786041,91.171860 303.758270,86.634171 
	C303.671326,72.421288 308.274689,60.855282 321.970825,54.391663 
	C322.840179,53.981392 324.302765,53.810574 324.191986,52.182690 
	C321.653717,50.913830 318.940735,51.266659 316.315643,51.251675 
	C307.011597,51.198547 302.791748,54.792889 301.461487,63.895184 
	C300.572571,69.977539 299.832886,76.081703 298.797333,83.012726 
M267.913849,124.681351 
	C272.286469,124.498108 276.722656,125.246078 281.402039,124.090263 
	C279.660522,119.846474 277.986237,115.767448 274.145233,113.998207 
	C270.866852,112.488129 269.895721,116.880844 267.587036,118.210052 
	C264.267639,120.121193 262.144012,119.105858 261.116333,115.743973 
	C260.598053,114.048409 260.815186,112.137047 260.617462,110.332291 
	C260.340820,107.807953 258.984772,106.901222 256.127045,107.821648 
	C257.821777,110.444862 259.366119,113.078186 256.844574,116.142250 
	C259.997620,117.582962 262.080200,119.565315 262.978851,122.638695 
	C263.571198,124.664391 265.338593,124.683006 267.913849,124.681351 
M240.936478,136.190247 
	C233.711685,130.672775 225.960297,130.730637 217.970642,134.150589 
	C215.530380,135.195145 213.694199,136.753937 215.777435,140.052856 
	C216.495590,139.472183 217.014954,139.102356 217.477020,138.671143 
	C224.343994,132.262802 227.721603,131.910645 235.298828,137.231125 
	C237.995773,139.124817 240.473434,138.750427 243.455673,137.458160 
	C242.634079,137.019882 242.065887,136.716766 240.936478,136.190247 
M240.748138,116.147583 
	C242.329483,114.604324 245.357742,115.551750 246.753067,112.462410 
	C242.872162,111.132996 240.185822,112.564018 238.107513,115.189301 
	C236.177231,117.627594 233.749664,120.254715 237.195435,124.233276 
	C237.903580,121.161995 238.048294,118.435799 240.748138,116.147583 
z"/>
</svg>