<svg version="1.1" id="Layer_1" xmlns="http://www.w3.org/2000/svg" xmlns:xlink="http://www.w3.org/1999/xlink" x="0px" y="0px"
	 width="100%" viewBox="0 0 480 352" enable-background="new 0 0 480 352" xml:space="preserve">
<path fill="#000000" opacity="1.000000" stroke="none" 
	d="
M244.496140,267.352112 
	C239.485947,280.826477 234.284607,293.800934 228.537781,306.553314 
	C227.515762,308.821198 226.775543,311.545166 223.282394,309.875244 
	C222.412109,308.008453 223.624069,306.615723 224.232330,305.132233 
	C234.903488,279.106110 245.643616,253.102371 252.672318,225.776016 
	C253.829208,221.278275 255.106659,216.699936 255.353836,212.106400 
	C255.709167,205.502869 250.708389,201.682846 246.083252,198.230301 
	C242.151001,195.294983 238.584076,192.164078 235.946518,188.046219 
	C234.987518,186.549026 233.534775,184.730743 235.308792,183.126663 
	C236.851547,181.731674 238.773178,182.614182 240.404968,183.575348 
	C243.403534,185.341553 246.368668,187.157852 249.409134,190.557022 
	C247.439560,185.531631 245.645874,182.480408 240.431702,181.614929 
	C233.992081,180.546051 227.742493,171.974106 227.104584,165.243073 
	C228.234238,163.627365 229.968414,165.624420 231.206406,164.600311 
	C231.431641,162.035568 228.120300,159.970016 230.226532,157.083664 
	C233.851486,156.949677 234.737366,161.404251 238.062988,161.748306 
	C238.864319,159.986725 236.593689,158.242172 238.452332,156.133286 
	C245.306885,159.792648 249.870392,165.457397 250.065048,173.200638 
	C250.215424,179.182556 251.522217,184.262344 255.390259,189.095779 
	C256.452667,181.783829 255.275162,174.685364 254.603195,167.609909 
	C253.975769,161.003616 253.402115,154.356049 251.601501,147.924240 
	C249.784729,141.434769 246.678604,139.857468 240.759460,142.776779 
	C232.530731,146.835175 223.610214,148.039841 214.743790,149.219360 
	C207.024673,150.246246 201.604935,146.548584 197.524673,139.857315 
	C194.325607,134.611099 190.821213,129.431854 186.019836,125.310684 
	C178.548721,118.898010 180.671616,100.283829 189.431564,95.983398 
	C191.967026,94.738693 192.703705,93.280502 192.734024,90.626183 
	C192.860336,79.571266 197.236023,70.994270 207.371078,65.642799 
	C210.101929,64.200867 212.172943,61.562023 214.772614,59.807053 
	C219.039505,56.926579 241.333664,54.062920 246.307846,55.609791 
	C247.887329,56.100979 249.979172,56.436050 250.814163,57.585365 
	C255.867874,64.541229 263.118591,63.170345 269.849823,62.528713 
	C278.983551,61.658073 284.245697,66.153587 289.015228,73.219124 
	C295.028320,82.126854 295.273254,92.329201 297.125519,102.214294 
	C297.442169,103.904327 296.360168,105.376274 295.497772,106.827927 
	C290.293854,115.587502 283.196289,121.901596 273.392578,125.306755 
	C269.206635,126.760674 265.421478,129.394150 261.497040,131.568954 
	C256.256897,134.472900 255.016434,139.084778 255.731842,144.721695 
	C258.075073,163.185165 260.787537,181.592545 260.396576,200.323776 
	C259.998108,219.415802 254.957626,237.410767 248.843353,255.234680 
	C247.493347,259.170197 246.043259,263.071381 244.496140,267.352112 
M248.440994,66.852211 
	C250.390854,65.036217 252.299744,63.091843 248.557449,61.315914 
	C246.953430,60.554707 244.995880,60.550610 243.344040,61.489189 
	C242.104431,62.193550 242.300980,63.443501 242.842102,64.523201 
	C243.862259,66.558685 245.208572,68.112381 248.440994,66.852211 
z"/>
<path fill="#000000" opacity="1.000000" stroke="none" 
	d="
M327.030792,109.048759 
	C319.913086,104.043900 313.174866,99.140862 307.791168,92.664360 
	C300.880798,84.351303 303.427643,74.851013 313.495178,71.153801 
	C315.205139,70.525833 317.050995,69.948990 318.454315,68.859413 
	C324.982086,63.791077 332.429565,62.839039 340.247253,63.908123 
	C343.261505,64.320328 344.280762,63.478714 344.933624,60.536377 
	C346.349182,54.156826 347.582916,53.403996 354.288666,53.678535 
	C359.660156,53.898453 364.911987,53.159809 370.151398,52.111645 
	C375.772064,50.987213 381.149231,51.385002 385.730621,55.271904 
	C389.913055,58.820385 394.639221,60.200096 400.087494,59.644630 
	C404.067963,59.238811 407.805542,60.381615 410.733948,63.077972 
	C414.355804,66.412781 414.585632,70.562241 412.757996,75.000519 
	C410.478363,80.536423 410.578491,80.390823 416.446869,82.272766 
	C425.312042,85.115776 433.559326,89.083328 438.436707,97.596764 
	C441.847137,103.549736 440.830048,105.543304 434.150238,106.427109 
	C429.795013,107.003342 426.251343,108.712860 423.572235,112.251884 
	C414.040192,124.843529 401.055328,129.944275 385.612793,129.501526 
	C382.761108,129.419769 380.513153,129.608231 379.199921,132.773666 
	C378.038361,135.573425 375.050842,136.128983 372.404510,136.134430 
	C368.780823,136.141876 367.355743,138.210754 366.614624,141.185669 
	C365.533356,145.525970 364.560364,149.893219 363.548859,154.216324 
	C365.257202,155.177856 365.817383,152.491882 367.358948,153.527649 
	C369.110138,154.983597 367.826935,157.220215 368.638184,159.247894 
	C371.665436,157.343536 371.390472,152.377350 375.691193,151.585266 
	C378.631897,154.856903 375.675354,158.232681 375.972046,161.575775 
	C378.105286,160.309052 378.480225,157.089630 381.370300,156.795639 
	C383.646881,161.199570 382.161316,167.839920 377.722748,172.592438 
	C376.484741,173.918030 375.090607,175.556519 373.480347,175.995239 
	C367.011719,177.757660 366.651611,183.112625 365.174103,188.267548 
	C361.587830,200.779816 364.497498,213.134781 365.868011,225.407761 
	C368.802979,251.689621 373.154297,277.780579 378.842957,303.628632 
	C379.232574,305.398865 379.898193,307.515656 377.186615,307.988983 
	C374.772644,308.410370 374.159393,306.628937 373.746216,304.665314 
	C367.613251,275.518433 362.678711,246.192215 359.525940,216.551651 
	C357.512543,197.623260 356.971039,178.689529 357.803467,159.715439 
	C358.057251,153.931549 359.199829,148.159470 360.285553,142.448563 
	C361.044037,138.458801 361.117371,135.158447 356.541504,133.516342 
	C352.855072,132.193420 353.135498,128.059540 351.120911,125.457970 
	C345.754517,118.528069 337.496796,116.064842 330.757599,111.301811 
	C329.673340,110.535522 328.476471,109.928619 327.030792,109.048759 
z"/>
<path fill="#000000" opacity="1.000000" stroke="none" 
	d="
M45.056297,90.084076 
	C48.351067,86.405495 53.034580,87.095886 57.023197,85.187027 
	C55.004601,80.331512 52.010197,76.175598 49.306484,71.857109 
	C48.287598,70.229683 46.294907,68.565331 47.905487,66.570198 
	C49.315804,64.823151 51.340332,66.167831 53.000946,66.738480 
	C56.617981,67.981438 60.159241,69.446701 63.784466,70.663193 
	C65.437683,71.217949 67.120857,72.373665 69.019630,71.235710 
	C70.187279,69.445610 68.716888,68.079811 68.264603,66.583717 
	C66.307709,60.110752 69.081123,55.732452 75.803757,55.823910 
	C83.385674,55.927059 90.745125,55.720028 97.583694,51.886436 
	C99.585907,50.764027 101.019958,52.075058 102.141800,53.739922 
	C102.960907,54.955513 103.738213,56.878601 105.418335,56.344418 
	C113.390640,53.809647 119.706299,58.908104 126.721008,60.709358 
	C128.472504,61.159115 130.169357,61.929684 131.793686,62.746876 
	C137.293777,65.513916 142.251617,65.932343 147.172501,61.101227 
	C149.331146,58.981968 152.605682,58.827351 154.595551,62.196148 
	C153.617340,64.098534 151.983002,63.870419 150.540573,64.046547 
	C148.980972,64.236977 147.510361,64.542366 147.146606,66.383865 
	C146.813217,68.071655 146.741348,69.941704 148.186264,71.029541 
	C151.834946,73.776520 155.866623,76.393700 160.507568,73.816261 
	C165.621552,70.976120 171.489014,71.382965 176.777222,69.288315 
	C180.050629,67.991737 181.397659,70.085960 180.533356,73.387245 
	C178.716263,80.327866 174.599731,86.041389 170.319611,91.548592 
	C157.712387,107.770218 143.737946,122.678566 127.247826,135.080048 
	C126.611847,135.558334 126.122726,136.231918 125.721931,136.650711 
	C125.594460,138.885422 128.065506,139.287247 128.153137,141.518158 
	C126.771446,142.859482 124.774033,143.172333 122.907654,142.684509 
	C118.394432,141.504852 116.816414,144.325699 115.789497,147.698135 
	C114.239174,152.789474 114.094376,158.103668 113.398193,164.036835 
	C116.216866,161.773651 117.910675,158.711533 121.290726,159.096710 
	C122.950211,161.013000 120.542816,162.867188 121.881149,164.632156 
	C124.853340,163.393890 125.850456,159.178802 129.646820,159.100967 
	C132.033234,162.355682 128.348724,164.809235 128.878555,167.728821 
	C130.896835,167.626694 131.951324,164.831192 135.130905,166.321869 
	C134.857864,172.129227 131.296158,176.214584 126.977417,179.830750 
	C125.853027,180.772217 124.434128,181.796158 123.062607,181.939148 
	C112.704529,183.019119 110.797745,190.934906 109.509506,198.933533 
	C105.351974,224.747498 98.759926,249.992615 92.107765,275.227173 
	C89.904716,283.584351 87.563446,291.910950 85.012558,300.167236 
	C84.177696,302.869385 83.828362,306.140503 80.595398,307.605347 
	C77.531921,305.920044 78.291069,303.366547 79.087753,301.031891 
	C91.094566,265.846497 98.985336,229.649551 105.312943,193.099792 
	C107.606163,179.853561 108.767876,166.414978 110.684006,153.098434 
	C111.675301,146.209183 108.496407,142.499039 102.547356,141.237610 
	C101.712860,138.325470 104.661911,138.436279 104.972099,136.230331 
	C94.698288,131.110580 89.935165,120.899818 83.747322,111.895187 
	C80.724884,107.496910 77.530624,103.240799 73.314529,99.872887 
	C70.061546,97.274323 66.589989,96.699776 62.560444,98.060524 
	C58.474648,99.440269 54.238056,100.380402 50.053112,101.457092 
	C47.453266,102.125977 44.593491,102.978485 42.632416,100.459435 
	C40.710224,97.990326 42.318394,95.353279 43.218933,92.894905 
	C43.553856,91.980598 44.255550,91.200638 45.056297,90.084076 
z"/>
</svg>